<?xml version="1.0" standalone="no"?>
<!DOCTYPE svg PUBLIC "-//W3C//DTD SVG 20010904//EN"
 "http://www.w3.org/TR/2001/REC-SVG-20010904/DTD/svg10.dtd">
<svg version="1.0" xmlns="http://www.w3.org/2000/svg"
 width="1000.000000pt" height="472.000000pt" viewBox="0 0 1000.000000 472.000000"
 preserveAspectRatio="xMidYMid meet">

<g transform="translate(0.000000,472.000000) scale(0.100000,-0.100000)"
fill="#000000" stroke="none">
<path d="M1665 3680 c-52 -13 -139 -62 -163 -91 -12 -15 -37 -31 -55 -34 -38
-9 -59 -24 -51 -37 12 -20 -29 -75 -70 -94 -24 -11 -51 -35 -66 -57 -22 -35
-28 -38 -57 -34 -40 7 -53 -10 -19 -23 27 -10 32 -25 18 -48 -6 -9 -28 -11
-78 -8 -90 6 -138 18 -142 36 -2 13 11 15 78 12 58 -3 80 -1 80 8 0 8 -8 10
-23 6 -14 -3 -38 2 -60 14 -20 11 -44 20 -52 20 -8 0 -15 4 -15 10 0 6 27 8
70 4 39 -2 70 -3 70 0 0 3 -5 17 -12 31 -10 23 -48 36 -48 16 0 -5 -11 -8 -25
-7 -26 1 -32 19 -16 45 7 11 15 10 45 -4 28 -13 40 -15 48 -7 9 9 4 15 -20 23
-29 10 -37 20 -33 42 2 11 -35 8 -64 -5 -22 -10 -28 -8 -46 10 -23 26 -57 29
-55 6 2 -25 -32 -43 -44 -24 -8 12 -12 13 -27 2 -10 -7 -35 -20 -55 -29 -28
-12 -35 -19 -28 -28 8 -9 -5 -25 -47 -60 -32 -27 -66 -57 -76 -68 -17 -19 -20
-20 -100 -4 -143 28 -188 32 -182 16 3 -8 -12 -33 -35 -58 -40 -42 -49 -61
-30 -61 5 0 7 -6 4 -14 -6 -17 -1 -19 130 -46 121 -24 143 -26 127 -6 -11 13
-26 17 -130 32 -25 4 -54 12 -66 18 -18 9 -9 11 47 10 37 -1 74 -7 82 -13 9
-8 28 -10 52 -5 36 7 37 8 14 16 -16 6 -26 5 -32 -4 -6 -10 -8 -10 -8 -1 0 7
-12 16 -27 19 -47 11 -103 48 -103 67 0 28 24 30 126 11 130 -26 137 -36 100
-148 -73 -225 -88 -386 -51 -563 7 -37 9 -65 3 -71 -14 -14 1 -58 22 -68 11
-5 29 -25 42 -44 81 -120 253 -149 357 -59 20 16 22 22 11 29 -9 5 -19 5 -27
-1 -19 -17 -33 -1 -33 37 0 26 5 37 21 42 28 11 11 23 -66 48 -69 22 -95 45
-64 56 26 10 24 25 -6 32 -14 4 -25 11 -25 17 0 11 102 5 136 -8 8 -3 14 0 14
6 0 6 -11 11 -24 11 -14 0 -28 5 -31 10 -3 6 -17 10 -31 10 -13 0 -24 4 -24 9
0 6 16 7 35 4 23 -4 35 -2 35 6 0 6 -6 11 -12 11 -29 0 -158 54 -158 66 0 7
-5 14 -11 16 -7 2 -9 13 -5 25 6 19 12 21 64 16 31 -3 73 -9 92 -14 98 -25 92
1 -7 32 -43 12 -70 25 -60 27 10 2 32 -1 49 -7 39 -14 91 -14 83 -1 -3 6 -16
10 -28 10 -18 1 -15 4 13 18 53 26 44 43 -35 65 -38 10 -74 25 -78 33 -9 15
-83 54 -104 54 -7 0 -13 9 -13 20 0 28 41 25 218 -14 34 -7 62 -11 62 -7 0 3
-36 19 -80 35 -44 15 -82 32 -85 36 -4 7 115 -12 156 -25 33 -11 44 7 13 21
l-29 12 31 1 c29 1 44 15 44 41 0 5 -27 17 -60 26 -38 10 -60 22 -60 31 0 8
-13 20 -30 26 -16 6 -32 18 -35 25 -6 17 29 13 153 -15 73 -17 88 -33 60 -61
-16 -16 -11 -19 43 -27 l46 -7 21 51 c21 52 48 74 61 52 7 -11 -8 -64 -39
-136 -7 -16 -16 -43 -21 -60 -65 -234 -73 -288 -74 -500 0 -153 4 -206 19
-270 10 -44 19 -97 20 -117 1 -26 7 -42 22 -53 12 -8 25 -26 28 -41 9 -36 39
-74 93 -119 37 -31 66 -44 152 -67 161 -42 212 -36 170 22 -22 29 -59 134 -59
165 0 12 -9 31 -20 43 -11 12 -20 26 -20 32 0 5 -3 10 -8 10 -10 0 -35 41 -28
47 2 3 11 0 18 -6 57 -47 79 -59 118 -64 40 -5 52 -2 113 35 37 22 67 47 67
54 0 8 6 17 13 20 8 3 13 26 14 68 1 84 5 89 60 81 69 -10 94 -24 83 -45 -5
-10 -11 -38 -12 -62 -2 -23 -11 -54 -21 -68 -23 -32 -22 -48 5 -69 33 -28 18
-51 -29 -45 -52 8 -24 -11 39 -27 l48 -11 0 -47 c0 -26 -4 -51 -9 -57 -4 -5
-11 -24 -14 -41 -5 -26 -2 -35 14 -44 17 -8 23 -7 34 8 20 25 47 107 41 124
-3 8 7 23 22 35 23 18 35 20 87 14 33 -4 83 -5 111 -2 37 3 55 0 65 -10 12
-14 16 -14 36 -1 24 16 32 15 353 -62 148 -36 180 -40 180 -21 0 8 -4 18 -10
21 -19 12 -10 34 19 48 26 13 38 13 93 1 35 -8 79 -17 98 -21 19 -3 49 -12 65
-19 l30 -13 -25 -10 c-14 -5 -19 -10 -11 -10 10 -1 12 -9 8 -30 -4 -18 -2 -31
5 -33 23 -8 -4 -28 -39 -28 -26 0 -36 5 -40 20 -5 19 -20 25 -105 44 -25 6
-26 5 -15 -19 7 -14 20 -25 29 -25 23 0 68 -21 68 -32 0 -5 10 -22 22 -38 17
-23 25 -27 39 -20 10 6 29 10 43 10 35 0 56 10 56 27 0 11 -8 13 -32 9 l-33
-5 33 11 c24 8 39 8 57 0 22 -10 23 -14 14 -47 -13 -47 -6 -56 11 -15 10 23
18 30 32 27 13 -4 18 0 18 14 0 23 13 25 30 4 17 -20 3 -76 -21 -82 -21 -6
-25 -29 -6 -37 9 -3 7 -9 -5 -19 -10 -8 -18 -22 -18 -31 0 -9 -5 -16 -11 -16
-7 0 -9 9 -6 21 4 16 1 20 -16 17 -25 -3 -25 -13 -1 -81 9 -26 22 -46 28 -44
6 2 16 26 22 53 11 53 16 67 45 130 11 22 19 45 19 51 0 6 7 14 16 17 10 4 13
13 9 26 -4 12 -2 26 3 33 14 17 54 178 47 186 -4 3 -12 -2 -19 -11 -11 -15
-34 -12 -294 47 -155 35 -290 69 -300 74 -14 7 -18 18 -14 40 4 28 8 31 42 31
21 0 112 -16 202 -36 267 -59 340 -75 408 -88 72 -14 74 -18 52 -96 -61 -205
-70 -292 -52 -488 11 -122 11 -146 -3 -203 -9 -35 -20 -126 -23 -202 l-7 -137
39 -35 c21 -20 55 -42 75 -51 20 -8 51 -33 69 -55 36 -45 99 -90 126 -90 11 0
48 5 84 11 81 15 97 16 136 6 25 -6 37 -2 60 18 19 15 48 27 79 31 28 3 98 29
157 57 l107 50 168 -37 c92 -21 182 -44 200 -51 42 -19 119 -18 127 1 3 9 12
12 21 9 9 -4 25 2 36 12 63 58 78 76 72 90 -4 10 2 17 15 21 11 3 23 11 26 19
3 8 13 14 23 14 9 0 40 23 69 51 40 40 59 51 90 54 92 9 292 52 248 54 -29 1
-66 44 -62 73 4 29 40 36 75 13 20 -13 24 -23 21 -46 -5 -35 3 -36 79 -12 45
14 61 15 98 5 58 -15 71 -9 79 39 6 36 11 41 64 65 113 50 226 85 296 90 88 7
112 3 726 -140 201 -47 276 -65 397 -92 l122 -27 80 18 c54 12 82 23 85 34 3
9 12 61 20 116 19 122 36 204 66 313 12 46 20 85 17 88 -3 4 -28 -1 -56 -11
-28 -9 -55 -14 -60 -11 -5 4 -29 -4 -52 -16 l-42 -22 -211 43 c-774 155 -906
187 -906 219 0 4 29 37 65 74 36 37 65 72 65 78 0 5 5 10 10 10 24 0 6 19 -32
34 -127 48 -288 175 -525 413 -94 95 -114 112 -227 196 -56 42 -264 150 -309
161 -33 8 -70 -1 -62 -15 4 -5 0 -9 -8 -9 -8 0 -23 -12 -32 -27 -33 -51 -83
-93 -110 -93 -35 0 -277 59 -289 70 -4 5 -23 6 -40 3 -17 -3 -56 2 -86 11 -30
8 -101 24 -157 35 -89 17 -160 40 -127 41 6 0 37 25 69 55 33 30 65 55 72 55
7 0 13 5 13 10 0 6 -33 10 -79 10 -44 0 -83 -4 -86 -10 -3 -5 -22 -10 -41 -10
-18 0 -62 -10 -96 -21 -76 -26 -251 -114 -268 -134 -7 -8 -19 -15 -27 -15 -7
0 -16 -6 -19 -14 -3 -8 -12 -12 -21 -9 -8 3 -18 2 -22 -3 -9 -14 -49 -34 -66
-34 -8 0 -15 -4 -15 -9 0 -5 -14 -12 -30 -16 -33 -7 -92 -34 -100 -45 -3 -4
-21 -10 -40 -14 -23 -4 -28 -3 -15 2 13 6 -9 11 -70 15 -55 4 -91 3 -93 -3 -2
-6 -9 -10 -15 -10 -7 0 -50 -32 -97 -71 -85 -70 -85 -70 -136 -66 -84 8 -394
85 -394 98 0 4 5 11 11 15 23 14 -16 264 -41 264 -5 0 -30 -17 -57 -38 -94
-73 -261 -192 -271 -192 -16 0 -21 -49 -12 -114 11 -79 15 -174 8 -181 -3 -4
-22 -3 -42 0 -31 6 -36 11 -36 35 0 35 -37 47 -78 26 -18 -9 -33 -11 -43 -5
-11 7 -10 9 5 9 18 0 18 2 -4 25 -13 14 -25 33 -26 41 -3 21 -44 64 -60 64 -7
0 -17 8 -23 17 -5 10 -24 22 -43 28 -25 9 -34 18 -36 40 -2 15 1 32 7 38 6 6
6 16 -2 28 -9 15 -8 22 4 35 14 13 20 14 36 3 24 -15 53 -6 53 16 0 12 -4 14
-19 5 -34 -18 -45 -12 -27 14 15 23 15 25 -6 32 -14 4 -24 2 -26 -6 -3 -7 -13
-21 -23 -31 -11 -11 -19 -23 -19 -28 0 -23 -44 -41 -84 -34 -69 10 -82 38 -30
62 21 9 23 13 12 31 -12 18 -8 24 32 61 25 23 56 45 69 50 15 6 21 15 17 24
-3 8 -1 15 4 15 6 0 10 5 10 10 0 21 -20 9 -26 -15 -4 -14 -9 -24 -11 -21 -3
2 -32 -16 -66 -40 -67 -50 -92 -53 -92 -11 1 17 -6 29 -17 33 -17 5 -21 14
-15 32 1 4 29 8 62 10 97 4 123 7 130 13 11 11 -33 200 -59 253 -38 76 -103
136 -162 147 -54 10 -64 8 -150 -32 -62 -29 -115 -78 -172 -161 -18 -27 -39
-48 -47 -48 -8 0 -43 7 -80 15 -36 9 -70 13 -75 10 -24 -15 -82 -181 -119
-345 -21 -89 -43 -262 -40 -321 3 -94 22 -242 39 -306 l18 -73 -22 0 c-19 0
-24 9 -37 68 -11 51 -20 69 -37 77 -25 11 -29 25 -7 25 12 0 15 14 15 64 0 78
-6 95 -36 107 -31 11 -31 29 1 29 24 0 25 3 27 65 1 36 2 75 2 88 1 15 -6 23
-21 25 -32 5 -30 32 2 32 14 0 25 1 25 3 0 1 7 40 15 86 8 47 14 85 12 86 -1
1 -13 8 -25 14 -27 14 -21 26 11 26 18 0 26 12 44 65 26 79 29 120 8 120 -8 0
-15 7 -15 15 0 11 7 14 25 9 23 -6 28 -2 43 35 14 34 22 41 45 41 15 0 27 4
27 8 0 5 25 50 55 100 l55 91 -26 28 -26 28 30 12 c17 7 33 17 37 23 3 5 22
10 41 10 40 0 56 24 29 44 -23 16 -14 31 33 55 20 10 45 28 55 39 10 11 38 26
62 33 24 7 41 17 39 21 -6 9 -17 9 -59 -2z m-735 -220 c0 -5 -7 -10 -15 -10
-8 0 -15 5 -15 10 0 6 7 10 15 10 8 0 15 -4 15 -10z m-44 -54 c-3 -12 -6 -24
-6 -28 0 -5 -11 -8 -25 -8 -20 0 -25 5 -25 24 0 46 9 56 37 43 18 -8 23 -16
19 -31z m444 -121 c0 -19 -11 -19 -36 0 -18 14 -18 14 9 15 17 0 27 -5 27 -15z
m-386 -25 c15 -5 42 -10 61 -10 46 0 65 -9 65 -31 0 -24 1 -24 -100 7 -117 36
-141 45 -135 54 5 8 64 -2 109 -20z m-204 10 c11 -6 12 -12 4 -20 -13 -13 -44
-2 -44 16 0 16 18 18 40 4z m-35 -93 c-8 -49 -18 -62 -39 -54 -19 7 -22 67 -6
98 9 16 15 17 31 8 18 -9 20 -17 14 -52z m39 8 c-4 -8 -8 -15 -10 -15 -2 0 -4
7 -4 15 0 8 4 15 10 15 5 0 7 -7 4 -15z m751 -135 c-3 -5 -10 -10 -16 -10 -5
0 -9 5 -9 10 0 6 7 10 16 10 8 0 12 -4 9 -10z m-825 -100 c12 -8 12 -10 -3
-16 -20 -7 -47 1 -47 16 0 12 30 13 50 0z m-63 -38 c6 -4 12 -31 12 -62 0 -48
-3 -57 -24 -66 -20 -10 -24 -9 -29 10 -9 32 -7 72 4 100 10 27 17 31 37 18z
m39 -69 c-10 -10 -19 5 -10 18 6 11 8 11 12 0 2 -7 1 -15 -2 -18z m1154 -72
c-6 -12 -15 -19 -21 -16 -13 8 -11 29 3 43 18 18 32 -2 18 -27z m85 29 c3 -5
-1 -10 -9 -10 -9 0 -16 5 -16 10 0 6 4 10 9 10 6 0 13 -4 16 -10z m2380 -10
c26 -10 13 -15 -80 -30 -38 -6 -95 -19 -125 -29 -79 -27 -110 -33 -110 -21 0
22 129 71 215 80 33 4 65 7 70 8 6 0 19 -3 30 -8z m400 -62 c30 -14 32 -29 5
-53 -18 -16 -26 -17 -77 -6 -73 14 -85 26 -54 52 26 22 86 25 126 7z m-2687
-39 c26 -7 50 -15 55 -19 9 -8 -13 -160 -23 -160 -5 0 -31 5 -59 12 l-51 11 0
68 c0 71 6 99 22 99 5 0 30 -5 56 -11z m863 -22 c-8 -8 -11 -7 -11 4 0 20 13
34 18 19 3 -7 -1 -17 -7 -23z m-760 0 c-13 -13 -26 -3 -16 12 3 6 11 8 17 5 6
-4 6 -10 -1 -17z m2319 3 c0 -5 -2 -10 -4 -10 -3 0 -8 5 -11 10 -3 6 -1 10 4
10 6 0 11 -4 11 -10z m517 -20 c18 -16 39 -30 46 -30 16 0 75 -49 60 -50 -48
-1 -173 72 -173 102 0 18 35 6 67 -22z m-603 10 c-14 -14 -71 -30 -78 -22 -7
6 48 29 74 31 9 1 11 -2 4 -9z m86 -82 c0 -34 -25 -50 -57 -35 -35 15 -42 56
-14 78 22 18 24 18 47 1 14 -10 23 -27 24 -44z m-3747 -34 c-1 -50 -4 -59 -24
-66 -30 -11 -34 -5 -33 57 0 60 17 90 43 76 12 -7 16 -22 14 -67z m1427 41 l0
-36 -22 21 c-23 21 -23 22 -4 36 26 19 26 19 26 -21z m647 -7 c-3 -8 -6 -5 -6
6 -1 11 2 17 5 13 3 -3 4 -12 1 -19z m-2050 -40 c-3 -7 -5 -2 -5 12 0 14 2 19
5 13 2 -7 2 -19 0 -25z m1959 -24 c-10 -37 -23 -21 -18 22 4 30 6 34 14 20 5
-10 7 -29 4 -42z m-89 14 c-3 -8 -6 -5 -6 6 -1 11 2 17 5 13 3 -3 4 -12 1 -19z
m263 18 c0 -3 -4 -8 -10 -11 -5 -3 -10 -1 -10 4 0 6 5 11 10 11 6 0 10 -2 10
-4z m-727 -26 c20 -23 42 -27 33 -5 -4 11 2 15 27 15 30 0 88 -29 60 -30 -8 0
-13 -15 -13 -41 0 -40 -1 -41 -27 -34 -16 3 -39 14 -52 23 -13 9 -31 22 -39
27 -37 24 -45 35 -32 50 16 20 22 19 43 -5z m1551 12 c13 -21 -148 -75 -190
-63 -27 7 -23 10 96 59 31 13 87 15 94 4z m-1694 -33 c0 -5 14 -9 30 -9 30 0
42 -22 19 -35 -6 -4 -8 -13 -5 -21 7 -18 -25 -35 -45 -24 -8 5 -21 5 -29 0
-11 -7 -8 -10 13 -10 18 0 27 -4 25 -12 -6 -18 -42 -21 -83 -8 -38 13 -45 27
-17 38 12 5 17 19 17 47 1 33 5 40 25 45 28 7 50 2 50 -11z m1049 12 c20 -5
59 -14 86 -20 28 -5 111 -24 185 -41 292 -67 276 -61 257 -100 -15 -31 -80
-55 -107 -40 -10 6 -30 10 -44 10 -14 0 -123 25 -243 55 -120 30 -228 55 -240
55 -12 0 -24 4 -27 9 -7 11 37 23 58 15 9 -3 16 -1 16 5 0 6 -7 11 -15 11 -18
0 -20 21 -3 38 14 14 29 15 77 3z m1501 1 c0 -9 -41 -49 -200 -192 -58 -52
-122 -110 -143 -129 -20 -19 -51 -47 -68 -62 l-30 -27 30 -7 c17 -4 33 -11 36
-16 4 -5 16 0 27 11 31 28 98 25 98 -5 0 -24 -46 -44 -88 -39 -27 3 -43 0 -52
-11 -16 -19 -59 -19 -85 -1 -11 7 -71 26 -133 41 -109 27 -138 43 -115 66 16
16 114 24 123 10 4 -7 36 -19 71 -27 81 -17 87 -17 63 0 -18 14 -18 15 11 38
66 51 130 113 127 121 -2 5 -12 17 -24 27 -23 18 -17 40 10 40 9 0 37 14 62
31 36 25 52 30 83 26 34 -5 42 0 102 54 59 54 95 73 95 51z m700 -36 c0 -11
-19 -15 -25 -6 -3 5 1 10 9 10 9 0 16 -2 16 -4z m-2360 -46 c11 -14 66 -28
205 -55 105 -21 199 -41 210 -45 11 -5 36 -11 55 -14 19 -3 44 -7 55 -10 177
-45 220 -47 273 -11 22 15 51 25 73 25 20 0 42 7 49 15 7 9 29 15 53 15 68 0
207 -23 207 -35 -1 -5 -20 -22 -44 -37 -47 -30 -106 -38 -106 -14 0 15 -49 36
-86 36 -17 0 -24 -6 -24 -19 0 -11 -12 -29 -27 -40 -21 -17 -36 -20 -77 -16
-28 2 -43 2 -33 -1 19 -6 22 -21 8 -43 -8 -12 -16 -13 -46 -4 -34 11 -37 10
-48 -15 -24 -54 -41 -65 -83 -53 -41 11 -280 66 -421 97 -46 10 -83 22 -83 26
0 4 -9 8 -19 8 -11 0 -23 5 -26 10 -3 6 -16 10 -28 10 -12 0 -51 6 -87 14 -36
8 -98 20 -138 27 -40 7 -75 16 -78 20 -11 19 28 58 65 64 29 5 39 12 48 35 9
24 17 29 49 32 57 4 87 -2 104 -22z m-2039 -50 c5 -35 3 -48 -9 -57 -39 -32
-58 -7 -47 63 5 39 9 45 28 42 18 -2 23 -12 28 -48z m572 35 c4 -8 2 -17 -3
-20 -6 -4 -10 3 -10 14 0 25 6 27 13 6z m1237 -5 c0 -5 -5 -10 -11 -10 -5 0
-7 5 -4 10 3 6 8 10 11 10 2 0 4 -4 4 -10z m2265 -40 c0 -18 -52 -27 -67 -12
-17 17 2 33 35 30 20 -2 32 -8 32 -18z m-2780 -31 c20 -19 20 -19 -15 -13 -46
9 -72 23 -65 35 9 13 56 0 80 -22z m2432 14 c3 -7 -3 -9 -16 -6 -12 3 -21 10
-21 15 0 13 32 6 37 -9z m-3035 -13 c37 -11 68 -33 68 -50 0 -25 -115 -56
-137 -38 -7 6 -13 17 -13 26 0 8 -7 24 -16 34 -16 16 -15 18 7 27 32 13 47 13
91 1z m2903 -29 c3 -5 1 -12 -4 -16 -13 -8 -61 5 -61 16 0 12 57 12 65 0z
m-2178 -16 c1 -5 -10 -19 -26 -30 -51 -33 -51 -87 -1 -82 43 3 38 -15 -9 -40
-35 -18 -47 -20 -74 -11 -18 6 -42 20 -54 31 -19 17 -23 18 -23 4 0 -9 -5 -19
-11 -22 -13 -8 -49 23 -49 42 0 7 -6 24 -14 36 -8 13 -12 34 -9 50 5 23 10 27
42 27 20 0 51 -9 69 -20 17 -11 32 -16 32 -12 0 29 118 55 127 27z m-513 -58
c-6 -18 -59 -48 -99 -57 -28 -6 -34 -4 -38 11 -8 29 39 58 95 59 35 0 46 -3
42 -13z m3030 -3 c114 -26 121 -29 124 -53 4 -27 46 -45 87 -37 32 7 85 52 85
73 0 8 5 11 10 8 15 -10 -28 -81 -57 -94 -13 -6 -37 -11 -53 -11 -40 0 -101
30 -98 49 3 16 -78 50 -122 52 -14 0 -41 7 -60 14 -29 11 -31 14 -11 14 13 1
55 -6 95 -15z m544 -3 c-1 -5 -31 -39 -66 -75 -61 -63 -92 -81 -92 -53 0 19
123 136 143 137 10 0 17 -4 15 -9z m-2520 -18 c5 -18 -20 -16 -44 2 -18 15
-18 15 10 13 16 -2 31 -9 34 -15z m1882 -18 c83 -19 160 -40 171 -45 22 -12
24 -30 7 -49 -11 -10 -7 -17 17 -37 44 -35 137 -37 191 -3 34 21 54 24 54 10
0 -13 -108 -129 -131 -142 -20 -10 -169 19 -314 61 -16 5 -48 12 -70 16 -22 3
-46 11 -53 17 -9 7 -24 7 -48 -2 -33 -12 -35 -11 -77 28 -23 23 -53 44 -67 47
-76 17 -88 37 -41 72 26 19 38 21 95 15 61 -5 66 -4 88 20 13 15 24 27 25 27
1 0 70 -16 153 -35z m-1963 10 c3 -9 3 -18 1 -21 -9 -9 -38 8 -38 22 0 19 29
18 37 -1z m1547 -67 c-7 -11 -17 -10 -49 2 -39 15 -22 30 20 17 19 -5 32 -14
29 -19z m123 -89 c36 -13 40 -32 4 -25 -17 3 -44 9 -61 12 -29 5 -37 14 -24
27 7 7 41 1 81 -14z m-3067 -18 c5 -11 10 -28 9 -38 0 -10 -3 -13 -6 -5 -2 6
-11 12 -19 12 -8 0 -14 4 -14 9 0 5 -3 16 -6 25 -9 23 23 20 36 -3z m2438 -5
c10 -10 -42 -6 -58 5 -11 7 -7 9 18 5 19 -2 36 -7 40 -10z m287 -16 c3 -5 -1
-10 -9 -10 -9 0 -16 5 -16 10 0 6 4 10 9 10 6 0 13 -4 16 -10z m-2625 -124 c9
-12 9 -16 1 -16 -22 0 -51 20 -51 36 0 17 28 6 50 -20z m1927 -33 c-11 -10
-77 -21 -77 -12 0 5 5 9 11 9 6 0 23 9 37 21 24 19 27 19 30 4 2 -9 1 -19 -1
-22z m723 -7 c0 -7 -7 -19 -15 -26 -12 -10 -16 -9 -21 5 -4 10 -1 21 7 26 20
12 29 11 29 -5z m111 -49 c-8 -8 -11 -4 -11 14 0 33 14 47 18 19 2 -12 -1 -27
-7 -33z m1068 -31 c9 -10 8 -16 -4 -26 -13 -10 -19 -10 -35 5 -11 10 -17 22
-14 26 8 14 40 11 53 -5z m-810 -10 c10 -11 8 -16 -7 -20 -24 -8 -75 11 -67
24 9 15 61 12 74 -4z m1066 -72 c36 -9 65 -22 65 -28 0 -19 -109 -131 -119
-121 -10 12 -32 145 -25 157 7 10 4 11 79 -8z m-1565 -39 c0 -8 -4 -15 -10
-15 -5 0 -10 7 -10 15 0 8 5 15 10 15 6 0 10 -7 10 -15z m-212 -11 c31 -9 28
-29 -7 -44 -29 -12 -36 -11 -120 16 -11 3 -11 7 -1 19 13 15 84 20 128 9z
m2112 -19 c0 -8 -9 -15 -20 -15 -22 0 -27 15 -7 23 21 9 27 7 27 -8z m-2493
-37 c-3 -8 -6 -5 -6 6 -1 11 2 17 5 13 3 -3 4 -12 1 -19z m2387 -129 c37 -29
33 -73 -7 -77 -54 -6 -92 62 -49 87 24 14 26 14 56 -10z m-711 -8 c6 -6 -8
-31 -42 -69 -28 -33 -51 -65 -51 -71 0 -14 -1 -14 -71 4 -33 9 -64 13 -69 10
-16 -10 -50 5 -50 21 0 16 45 20 55 4 9 -15 25 -12 25 5 0 7 -8 18 -17 24 -14
7 -9 13 29 31 25 12 54 30 65 42 15 17 26 19 67 14 27 -3 54 -10 59 -15z m97
-80 c0 -11 -4 -23 -10 -26 -6 -4 -10 5 -10 19 0 14 5 26 10 26 6 0 10 -9 10
-19z m144 -28 c-23 -17 -34 -17 -34 1 0 17 19 25 39 18 11 -4 10 -8 -5 -19z
m-1415 -44 c-16 -10 -23 -4 -14 10 3 6 11 8 17 5 6 -4 5 -9 -3 -15z m607 -50
c6 -10 -2 -11 -33 -3 -13 4 -23 10 -23 14 0 10 49 0 56 -11z m534 -3 c0 -24
-16 -43 -27 -32 -8 8 6 56 17 56 6 0 10 -11 10 -24z m180 -26 c0 -20 -5 -30
-15 -30 -16 0 -19 17 -9 44 10 26 24 18 24 -14z m-404 -7 c-10 -10 -19 5 -10
18 6 11 8 11 12 0 2 -7 1 -15 -2 -18z m-876 -13 c0 -5 -4 -10 -9 -10 -6 0 -13
5 -16 10 -3 6 1 10 9 10 9 0 16 -4 16 -10z m1036 -249 c-14 -25 -20 -29 -39
-22 -12 5 -24 16 -26 26 -2 13 1 16 12 12 8 -3 23 3 33 14 26 28 39 8 20 -30z"/>
<path d="M3015 2459 c2 -25 21 -39 55 -39 18 0 21 3 11 9 -7 5 -11 13 -7 19 4
7 -41 32 -59 32 -1 0 -1 -9 0 -21z"/>
<path d="M456 3361 c-3 -5 9 -11 28 -13 40 -4 58 0 50 13 -7 12 -71 12 -78 0z"/>
<path d="M241 3046 c-16 -64 -15 -89 5 -82 9 3 23 6 32 7 11 0 12 2 5 6 -21 8
-15 33 12 45 28 12 33 28 10 28 -8 0 -20 9 -27 20 -18 29 -24 25 -37 -24z"/>
<path d="M2508 3002 c-10 -2 -18 -8 -18 -13 0 -13 27 -11 35 2 9 13 4 16 -17
11z"/>
<path d="M2385 2980 c-10 -11 -25 -20 -34 -20 -14 -1 -13 -2 2 -11 19 -11 72
14 81 38 8 21 -29 15 -49 -7z"/>
<path d="M2288 2973 c7 -3 16 -2 19 1 4 3 -2 6 -13 5 -11 0 -14 -3 -6 -6z"/>
<path d="M2127 2930 c-3 -12 -14 -20 -26 -20 -22 0 -28 -14 -11 -25 6 -4 18
-1 26 6 22 18 36 47 25 53 -5 3 -11 -3 -14 -14z"/>
<path d="M2770 2930 c0 -5 4 -10 9 -10 6 0 13 5 16 10 3 6 -1 10 -9 10 -9 0
-16 -4 -16 -10z"/>
<path d="M2056 2882 c-3 -6 -1 -14 5 -17 14 -9 20 -2 10 14 -6 8 -11 9 -15 3z"/>
<path d="M244 2813 c0 -60 59 -117 140 -137 34 -8 71 -18 84 -22 15 -4 22 -2
22 7 0 14 -28 25 -127 50 -40 9 -53 17 -53 31 0 22 33 24 109 3 62 -16 71 -13
71 20 0 30 2 29 -112 60 -130 34 -134 34 -134 -12z"/>
<path d="M2033 2773 c9 -2 25 -2 35 0 9 3 1 5 -18 5 -19 0 -27 -2 -17 -5z"/>
<path d="M2445 2700 c-18 -7 -19 -8 -2 -15 20 -8 47 0 47 15 0 12 -17 12 -45
0z"/>
<path d="M976 2421 c-10 -16 5 -39 29 -43 24 -5 44 18 28 33 -15 13 -51 20
-57 10z"/>
<path d="M8019 2381 c-19 -21 -46 -59 -61 -85 -23 -39 -32 -46 -58 -46 -35 0
-39 -14 -10 -30 20 -11 20 -11 -4 -53 -17 -29 -34 -44 -52 -47 -25 -4 -32 -17
-70 -120 -24 -63 -43 -118 -44 -122 0 -4 9 -10 21 -13 14 -5 18 -12 14 -23
-31 -76 -127 -443 -119 -452 7 -6 77 0 86 8 7 7 48 154 48 172 0 5 -16 16 -35
24 -19 8 -35 20 -35 26 0 13 43 30 75 30 20 0 25 7 31 38 4 20 10 44 14 52 4
8 10 28 14 43 6 25 3 29 -29 43 -32 13 -34 16 -23 35 15 23 48 19 77 -10 10
-10 25 -21 32 -23 14 -5 7 -38 -77 -358 -51 -195 -93 -423 -114 -615 -9 -85
-13 -333 -7 -415 2 -19 -3 -25 -18 -26 -11 0 -28 -4 -38 -8 -11 -5 -23 -4 -30
3 -9 9 -6 13 11 17 35 10 28 47 -15 84 -37 30 -37 31 -11 27 33 -5 46 18 18
33 -26 14 -25 32 0 48 29 18 25 36 -12 53 -40 17 -38 35 2 31 31 -4 40 14 19
35 -8 8 -7 17 2 34 27 49 23 75 -16 97 -46 28 -46 46 -1 39 l35 -6 11 53 c12
60 6 86 -21 86 -21 0 -27 34 -8 46 8 5 4 12 -10 24 -20 14 -21 18 -7 29 10 9
20 9 33 2 21 -11 53 2 34 13 -17 11 -13 46 8 64 12 11 22 36 25 67 6 50 6 50
-31 67 -21 10 -41 14 -44 10 -8 -7 -37 -140 -44 -201 -3 -20 -11 -76 -19 -126
-23 -137 -34 -306 -30 -452 2 -81 0 -133 -6 -133 -19 0 -9 -24 31 -77 33 -42
47 -53 70 -53 16 0 29 5 29 10 0 6 -7 10 -16 10 -9 0 -14 5 -12 11 4 13 8 12
52 -6 20 -8 40 -23 45 -34 15 -27 56 -34 90 -16 45 23 94 89 150 203 50 100
55 122 25 122 -8 0 -14 5 -14 10 0 13 32 13 79 0 20 -5 66 -16 103 -25 l68
-16 32 37 c18 20 40 46 50 56 10 12 26 18 43 16 41 -4 56 25 26 49 -19 16 -22
24 -16 57 5 27 14 40 31 46 28 11 31 25 7 35 -16 6 -15 8 7 17 l25 10 -23 11
c-13 6 -32 28 -43 48 -18 36 -18 38 -1 59 l18 23 154 -31 c85 -17 157 -29 159
-26 12 11 -22 23 -129 44 -63 12 -131 29 -150 38 l-35 16 37 4 c21 2 84 -6
139 -18 77 -16 109 -18 133 -11 17 6 40 9 50 8 10 -1 21 4 23 11 3 6 -3 12
-11 12 -9 0 -20 10 -25 21 -6 18 -29 27 -126 51 -66 16 -132 36 -147 44 -26
14 -54 57 -49 77 1 5 -7 8 -16 7 -39 -4 -73 1 -73 10 0 21 164 10 310 -20 80
-17 154 -33 164 -36 14 -5 18 -2 13 9 -3 9 1 21 9 27 27 24 17 49 -23 55 -21
3 -56 10 -78 15 -22 5 -62 14 -90 19 -89 17 -116 26 -115 36 1 13 50 8 135
-15 83 -21 155 -34 155 -26 0 3 -5 16 -11 30 -12 25 -29 32 -166 62 -82 18
-123 44 -123 80 0 21 5 24 33 24 18 0 86 -11 151 -25 65 -14 136 -25 157 -25
32 0 39 -3 37 -17 -2 -13 5 -19 25 -21 28 -3 28 -5 22 -45 -4 -23 -11 -46 -15
-52 -4 -5 -11 -30 -15 -55 -4 -25 -18 -90 -32 -145 -28 -116 -60 -280 -73
-380 -5 -38 -12 -80 -15 -93 -3 -12 -6 -79 -6 -148 -1 -118 -2 -125 -20 -119
-40 13 -18 -25 29 -49 32 -16 33 -16 57 10 27 30 31 44 14 61 -23 23 2 36 60
29 50 -5 53 -5 31 7 -16 9 -24 20 -22 33 5 25 19 33 62 35 19 1 26 4 15 6 -65
13 -180 60 -183 75 -3 13 7 17 52 20 30 1 52 -1 49 -5 -2 -4 13 -7 34 -6 21 1
67 -2 102 -6 60 -8 62 -9 40 -22 -17 -10 -18 -12 -4 -7 11 4 38 10 60 13 39 6
38 7 -33 20 -51 9 -77 19 -85 32 -12 20 -57 27 -57 9 0 -5 -21 -1 -47 9 -44
17 -48 21 -48 52 0 32 2 34 40 39 49 6 51 21 5 52 -29 20 -35 30 -37 61 0 21
4 37 10 37 6 0 0 11 -13 25 -13 14 -20 28 -16 32 4 4 33 8 64 8 49 0 57 3 60
20 2 15 -8 24 -38 37 -40 17 -40 17 -34 59 4 23 13 61 19 83 12 40 13 41 56
41 41 0 44 -2 49 -30 5 -28 6 -28 12 -8 4 14 14 23 26 23 26 0 38 18 18 26
-22 8 -20 36 2 32 12 -2 17 -13 18 -38 0 -34 1 -34 70 -52 38 -10 88 -18 110
-18 23 0 98 -13 167 -30 147 -35 137 -34 137 -15 0 16 3 15 -244 75 -188 46
-196 49 -196 60 0 14 36 17 86 8 27 -6 64 -10 82 -10 17 0 32 -4 32 -9 0 -5
18 -9 41 -9 22 0 38 -4 35 -8 -2 -4 10 -6 29 -4 18 2 36 -1 39 -7 4 -6 18 -11
32 -11 14 0 22 -4 19 -10 -3 -5 6 -12 20 -16 14 -3 25 -10 25 -15 0 -5 11 -14
25 -19 28 -10 29 -17 15 -75 -5 -22 -12 -62 -15 -90 -3 -27 -15 -82 -25 -122
-20 -72 -18 -103 4 -103 6 0 21 -3 32 -6 17 -5 24 0 32 25 9 25 17 31 39 31
27 0 53 15 53 31 0 13 -71 49 -95 49 -33 0 -37 12 -20 61 9 24 13 56 10 71 -6
27 -5 28 24 22 37 -8 52 17 28 44 -24 26 -7 46 26 31 15 -7 25 -15 22 -19 -2
-3 9 -4 25 -2 41 6 45 28 8 47 -17 8 -39 15 -49 15 -39 0 -30 24 30 81 57 53
69 79 38 79 -7 0 -23 9 -37 20 -33 25 -40 25 -40 -3 0 -13 -6 -29 -12 -36 -7
-6 -14 -16 -14 -22 -1 -5 -2 -14 -3 -20 -1 -7 -14 -9 -33 -7 -20 3 -38 0 -46
-8 -7 -8 -23 -14 -35 -14 -29 0 -246 49 -274 63 -16 7 -26 7 -38 -3 -8 -7 -27
-10 -42 -7 -46 8 -216 54 -246 66 -49 19 -26 36 56 41 60 4 79 9 90 24 17 23
40 12 32 -15 -8 -24 20 -37 47 -20 15 9 36 7 101 -8 287 -69 338 -80 352 -75
12 5 13 9 4 20 -6 8 -18 14 -26 14 -8 0 -89 18 -181 40 -92 22 -189 45 -217
51 -61 12 -129 33 -180 55 -32 13 -36 17 -24 29 8 8 33 16 56 18 35 4 42 2 46
-15 5 -16 12 -19 31 -16 18 4 26 1 26 -8 0 -8 9 -14 20 -14 18 0 19 3 10 21
-7 11 -9 23 -6 26 8 9 36 -17 36 -34 0 -18 27 -28 43 -15 9 8 32 7 80 -5 37
-9 70 -13 74 -9 11 10 -18 26 -47 26 -34 0 -222 67 -231 82 -4 7 -3 20 2 30 7
14 6 18 -6 18 -9 0 -39 10 -66 21 l-50 22 31 15 c25 12 40 13 83 4 29 -6 79
-14 112 -17 l60 -6 -40 14 c-22 8 -61 20 -87 27 -48 13 -53 20 -49 64 1 11 -4
34 -10 53 -9 27 -16 33 -39 33 -27 0 -46 -22 -35 -41 4 -5 -3 -19 -14 -31 -12
-12 -21 -26 -21 -30 0 -5 -16 -6 -35 -2 -23 4 -35 2 -35 -5 0 -6 9 -11 19 -11
28 0 34 -16 19 -47 -10 -21 -21 -28 -41 -28 -36 -1 -74 -48 -74 -92 0 -18 -3
-36 -6 -40 -13 -12 -387 64 -387 79 0 4 30 8 67 8 64 0 65 1 45 18 -11 9 -29
22 -39 28 -14 10 -16 15 -6 25 10 10 39 8 155 -15 79 -15 151 -30 161 -33 14
-4 18 0 15 12 -2 13 -17 18 -65 21 -34 2 -74 9 -88 14 -15 6 -36 10 -48 10
-53 0 -131 34 -111 48 6 4 8 28 5 62 -5 46 -8 51 -15 30 -7 -23 -9 -21 -25 30
-19 58 -31 69 -50 47 -9 -11 -5 -27 14 -72 31 -68 37 -128 15 -132 -8 -2 -32
13 -53 34 -38 37 -47 36 -60 -2 -3 -9 -188 22 -268 46 -35 10 -117 75 -107 85
11 10 339 -50 392 -71 14 -6 17 -4 14 5 -2 8 -31 20 -64 26 -32 7 -115 25
-184 39 -69 15 -129 30 -133 35 -12 11 10 50 28 50 8 0 15 4 15 8 0 19 82 33
147 26 l65 -7 -5 119 c-6 138 -17 202 -41 239 -20 31 -38 39 -69 31 -26 -7
-77 -49 -77 -64 0 -14 -41 -85 -54 -94 -5 -3 -19 -2 -32 2 -24 10 -64 3 -64
-11 0 -5 10 -9 23 -9 48 0 54 -15 27 -69 -22 -44 -28 -49 -50 -44 -38 9 -44
19 -26 44 21 31 20 59 -1 60 -15 0 -15 2 2 9 17 7 17 9 3 9 -10 1 -18 6 -18
11 0 9 6 11 43 14 18 1 47 36 47 58 0 10 5 18 11 18 5 0 8 4 5 9 -3 5 2 11 13
14 22 5 36 47 15 47 -8 0 -14 5 -14 10 0 6 9 10 21 10 11 0 17 5 14 10 -14 22
-53 9 -86 -29z m-119 -315 c0 4 5 3 12 -4 18 -18 -5 -36 -36 -28 -23 6 -24 9
-14 26 9 14 16 16 25 8 7 -6 13 -7 13 -2z m255 -455 c213 -45 198 -39 191 -75
-3 -17 -13 -56 -21 -86 -9 -30 -20 -75 -25 -100 -5 -25 -16 -72 -24 -105 -31
-122 -67 -368 -55 -386 4 -7 19 -9 33 -7 24 5 26 3 26 -33 0 -48 -15 -89 -34
-89 -18 0 -30 -34 -22 -63 7 -28 -10 -58 -22 -39 -5 7 -62 25 -128 40 -66 15
-142 39 -169 52 l-50 25 0 115 c0 158 19 371 46 525 6 33 13 74 16 90 2 17 11
44 19 62 8 17 14 38 14 47 0 19 35 56 53 56 6 0 75 -13 152 -29z m955 -156 c0
-21 -24 -29 -49 -15 -32 16 -25 30 14 30 25 0 35 -4 35 -15z m-467 -101 c107
-21 140 -31 148 -45 8 -17 6 -19 -20 -19 -40 0 -292 50 -315 62 -15 8 -16 12
-5 19 21 13 42 11 192 -17z m412 -44 c4 -6 -5 -10 -19 -10 -14 0 -26 5 -26 10
0 6 9 10 19 10 11 0 23 -4 26 -10z m631 -122 l-16 -22 0 30 c0 16 6 36 13 43
19 19 22 -24 3 -51z m-1072 -72 c64 -15 93 -25 81 -29 -17 -7 -112 6 -171 24
-17 5 -38 9 -47 9 -9 0 -17 7 -17 16 0 13 6 15 28 9 15 -4 72 -17 126 -29z
m-280 -77 c-9 -15 -24 10 -17 29 5 12 7 12 15 -2 5 -9 6 -21 2 -27z"/>
<path d="M2933 1973 c9 -2 23 -2 30 0 6 3 -1 5 -18 5 -16 0 -22 -2 -12 -5z"/>
<path d="M2050 1880 c0 -5 9 -10 21 -10 11 0 17 5 14 10 -3 6 -13 10 -21 10
-8 0 -14 -4 -14 -10z"/>
<path d="M2165 1871 c-9 -16 9 -20 23 -5 10 12 10 14 -2 14 -8 0 -17 -4 -21
-9z"/>
<path d="M2318 1873 c6 -2 18 -2 25 0 6 3 1 5 -13 5 -14 0 -19 -2 -12 -5z"/>
<path d="M2203 1843 c9 -2 23 -2 30 0 6 3 -1 5 -18 5 -16 0 -22 -2 -12 -5z"/>
<path d="M2306 1831 c-6 -8 3 -71 9 -71 18 0 35 16 35 34 0 33 -31 59 -44 37z"/>
<path d="M1997 1823 c-10 -2 -16 -12 -15 -21 2 -11 -3 -16 -14 -14 -10 2 -18
-2 -18 -8 0 -5 8 -10 18 -10 10 0 23 -5 30 -12 16 -16 28 -2 35 40 7 33 3 35
-36 25z"/>
<path d="M2424 1811 c4 -6 0 -11 -10 -11 -13 0 -14 -3 -5 -13 6 -8 7 -18 3
-22 -4 -5 1 -5 11 -2 16 6 17 2 11 -28 -3 -19 -3 -35 1 -35 16 0 45 22 45 35
0 8 9 19 20 25 26 14 15 40 -17 40 -13 0 -34 5 -45 11 -15 8 -19 8 -14 0z"/>
<path d="M6935 1810 c-3 -5 -15 -10 -26 -10 -25 0 -24 -22 1 -45 15 -14 29
-16 64 -11 25 4 47 10 50 14 8 15 -14 52 -28 46 -8 -3 -17 -1 -21 5 -8 14 -32
14 -40 1z"/>
<path d="M7535 1801 c-3 -5 -1 -12 5 -16 6 -4 8 -10 5 -14 -2 -5 8 -11 24 -14
16 -3 36 -13 44 -22 9 -8 21 -15 27 -15 7 0 -8 20 -33 45 -46 45 -61 53 -72
36z"/>
<path d="M2140 1770 c0 -5 7 -10 15 -10 8 0 15 5 15 10 0 6 -7 10 -15 10 -8 0
-15 -4 -15 -10z"/>
<path d="M1936 1743 c-12 -13 -5 -21 25 -32 25 -8 30 -15 24 -28 -14 -32 -17
-298 -5 -404 6 -57 14 -134 17 -171 5 -64 7 -68 30 -68 13 0 39 -11 56 -24 18
-13 78 -35 137 -50 58 -15 119 -31 135 -36 50 -15 118 -33 155 -41 19 -4 51
-12 70 -18 19 -5 87 -23 150 -39 63 -17 169 -44 235 -62 229 -60 278 -71 286
-63 15 15 -14 43 -51 53 -60 14 -261 67 -340 88 -41 12 -136 37 -210 56 -74
19 -178 47 -230 61 -52 14 -140 37 -195 51 -121 31 -145 45 -145 83 0 15 -13
55 -30 88 -40 80 -55 187 -40 291 21 140 23 160 16 206 -6 37 -11 46 -27 46
-11 0 -28 4 -38 10 -10 5 -21 6 -25 3z"/>
<path d="M8930 1746 c0 -2 7 -9 15 -16 12 -10 15 -10 15 4 0 9 -7 16 -15 16
-8 0 -15 -2 -15 -4z"/>
<path d="M2250 1707 c0 -8 9 -22 21 -33 20 -18 21 -18 35 1 13 18 13 20 -3 23
-10 2 -22 8 -27 13 -14 13 -26 11 -26 -4z"/>
<path d="M9370 1655 c0 -9 5 -15 11 -13 6 2 11 8 11 13 0 5 -5 11 -11 13 -6 2
-11 -4 -11 -13z"/>
<path d="M1891 1627 c-13 -16 -5 -27 21 -27 21 0 23 13 4 29 -10 8 -16 8 -25
-2z"/>
<path d="M3370 1576 c0 -8 5 -18 10 -21 6 -3 10 1 10 9 0 8 -4 18 -10 21 -5 3
-10 -1 -10 -9z"/>
<path d="M1897 1506 c-8 -20 20 -43 35 -28 8 8 8 15 -2 27 -16 19 -26 19 -33
1z"/>
<path d="M8810 1470 c0 -5 7 -10 15 -10 8 0 18 0 22 -1 4 0 9 4 11 10 2 6 -8
11 -22 11 -14 0 -26 -4 -26 -10z"/>
<path d="M3220 1350 c0 -23 25 -27 33 -6 7 16 -1 26 -20 26 -7 0 -13 -9 -13
-20z"/>
<path d="M1927 1214 c-14 -15 -6 -34 14 -34 14 0 19 5 17 17 -3 18 -20 27 -31
17z"/>
<path d="M9136 1111 c5 -5 32 -11 59 -15 l50 -6 -45 15 c-51 17 -79 19 -64 6z"/>
<path d="M1933 1085 c-7 -20 0 -27 20 -19 9 3 13 12 10 20 -7 19 -22 18 -30
-1z"/>
<path d="M9014 1039 c-8 -14 11 -33 25 -25 16 10 13 36 -3 36 -8 0 -18 -5 -22
-11z"/>
<path d="M8742 988 c-7 -7 -12 -18 -12 -25 0 -7 -5 -13 -11 -13 -5 0 -7 -4 -4
-10 13 -20 33 -9 39 22 7 36 4 42 -12 26z"/>
<path d="M9529 958 c-6 -11 -3 -58 3 -58 4 0 8 14 8 30 0 25 -6 38 -11 28z"/>
<path d="M8700 850 c-13 -8 -12 -10 3 -10 9 0 17 5 17 10 0 12 -1 12 -20 0z"/>
<path d="M9048 843 c6 -2 18 -2 25 0 6 3 1 5 -13 5 -14 0 -19 -2 -12 -5z"/>
<path d="M8980 826 c0 -15 24 -28 34 -19 13 14 5 33 -14 33 -11 0 -20 -6 -20
-14z"/>
<path d="M9133 823 c9 -2 23 -2 30 0 6 3 -1 5 -18 5 -16 0 -22 -2 -12 -5z"/>
<path d="M9521 815 c-1 -11 -4 -31 -7 -45 -5 -22 -4 -23 6 -7 6 10 9 30 7 45
-3 18 -5 20 -6 7z"/>
<path d="M9074 793 c12 -19 78 -42 156 -53 162 -23 220 -40 232 -65 18 -39 34
-37 47 7 9 29 9 44 2 51 -8 8 -11 7 -11 -2 0 -10 -9 -12 -32 -8 -118 22 -195
37 -278 56 -101 23 -124 25 -116 14z"/>
<path d="M8686 763 c-12 -12 -5 -23 14 -23 11 0 20 4 20 9 0 11 -26 22 -34 14z"/>
<path d="M9564 679 c-3 -49 -11 -89 -16 -89 -5 0 -18 5 -30 11 -17 9 -19 8
-16 -8 4 -24 68 -32 68 -9 0 11 10 16 34 16 21 0 44 8 59 22 l26 23 -36 32
c-19 18 -32 37 -28 43 3 5 1 10 -4 10 -6 0 -20 9 -30 19 -19 19 -20 19 -27
-70z"/>
<path d="M8702 640 c0 -14 2 -19 5 -12 2 6 2 18 0 25 -3 6 -5 1 -5 -13z"/>
<path d="M8998 643 c7 -3 16 -2 19 1 4 3 -2 6 -13 5 -11 0 -14 -3 -6 -6z"/>
<path d="M8302 608 c-13 -15 -21 -28 -18 -28 11 0 47 41 44 49 -2 4 -13 -5
-26 -21z"/>
<path d="M3330 593 c0 -5 9 -22 19 -39 13 -22 30 -33 53 -38 19 -3 52 -15 73
-26 21 -11 41 -18 43 -15 8 7 -39 65 -53 65 -8 0 -20 8 -27 18 -19 27 -108 55
-108 35z"/>
<path d="M9124 546 c23 -18 36 -20 36 -6 0 6 -4 10 -9 10 -5 0 -18 3 -28 6
-16 5 -16 4 1 -10z"/>
<path d="M9018 473 c6 -2 18 -2 25 0 6 3 1 5 -13 5 -14 0 -19 -2 -12 -5z"/>
</g>
</svg>
