<?xml version="1.0" standalone="no"?>
<!DOCTYPE svg PUBLIC "-//W3C//DTD SVG 20010904//EN"
 "http://www.w3.org/TR/2001/REC-SVG-20010904/DTD/svg10.dtd">
<svg version="1.0" xmlns="http://www.w3.org/2000/svg"
 width="432.000000pt" height="186.000000pt" viewBox="0 0 432.000000 186.000000"
 preserveAspectRatio="xMidYMid meet">

<g transform="translate(0.000000,186.000000) scale(0.100000,-0.100000)"
fill="#000000" stroke="none">
<path d="M833 1533 l-333 -197 0 -125 c0 -70 3 -244 7 -388 l6 -263 326 -184
c179 -102 331 -186 336 -188 6 -2 160 85 343 192 329 193 332 195 304 208 -27
13 -38 8 -335 -167 l-306 -180 -311 176 -310 175 0 148 c0 81 -3 241 -6 356
l-7 209 311 183 311 182 310 -175 c300 -171 311 -176 337 -162 27 14 24 16
-252 172 -153 87 -305 173 -337 191 -32 19 -59 34 -60 34 -1 -1 -152 -89 -334
-197z"/>
<path d="M867 1468 l-287 -170 2 -346 3 -346 298 -169 298 -168 294 172 c161
96 291 177 289 181 -3 4 -37 -12 -77 -35 -40 -24 -170 -101 -289 -171 l-217
-128 -289 164 -289 163 -5 330 c-4 239 -3 333 6 342 15 15 554 333 566 333 5
0 135 -72 290 -160 253 -144 324 -180 294 -151 -17 17 -576 331 -588 330 -6 0
-140 -77 -299 -171z"/>
<path d="M895 1087 c-3 -7 -4 -58 -3 -113 l3 -99 48 -3 48 -3 -3 113 -3 113
-43 3 c-29 2 -44 -1 -47 -11z"/>
<path d="M1387 1094 c-4 -4 -7 -56 -7 -116 l0 -109 48 3 47 3 0 110 0 110 -40
3 c-23 2 -44 0 -48 -4z"/>
<path d="M1746 1019 c-23 -18 -26 -27 -26 -85 0 -50 3 -64 15 -64 9 0 15 9 15
25 0 23 4 25 40 25 36 0 40 -2 40 -25 0 -16 6 -25 15 -25 12 0 15 16 15 85 l0
85 -44 0 c-29 0 -52 -7 -70 -21z m84 -44 c0 -22 -4 -25 -40 -25 -26 0 -40 5
-40 13 0 21 22 37 52 37 23 0 28 -4 28 -25z"/>
<path d="M1890 1011 c0 -16 7 -34 15 -41 14 -12 14 -15 0 -30 -20 -22 -20 -70
0 -70 8 0 15 8 15 18 0 11 9 27 20 37 19 17 21 17 40 0 11 -10 20 -26 20 -37
0 -10 7 -18 15 -18 20 0 20 48 0 70 -14 15 -14 18 0 30 17 14 21 70 5 70 -6 0
-14 -10 -19 -23 -5 -13 -16 -29 -25 -36 -19 -16 -43 -1 -57 36 -12 32 -29 29
-29 -6z"/>
<path d="M2060 956 l0 -86 65 0 c51 0 65 3 65 15 0 11 -12 15 -50 15 l-49 0
-3 67 c-2 42 -8 68 -15 71 -10 3 -13 -18 -13 -82z"/>
<path d="M2217 1033 c-4 -3 -7 -42 -7 -85 l0 -78 70 0 c54 0 70 3 70 14 0 11
-15 16 -52 18 -39 2 -53 7 -53 18 0 11 13 16 48 18 33 2 47 7 47 18 0 10 -13
14 -50 14 -38 0 -50 4 -50 15 0 11 12 15 43 16 23 1 48 1 55 0 6 -1 12 7 12
19 0 18 -6 20 -63 20 -35 0 -67 -3 -70 -7z"/>
<path d="M2379 1013 c-6 -108 -4 -138 11 -138 8 0 16 10 18 22 3 19 10 22 55
25 l52 3 0 55 0 55 -67 3 -68 3 -1 -28z m111 -38 c0 -22 -4 -25 -40 -25 -36 0
-40 3 -40 25 0 23 4 25 40 25 36 0 40 -2 40 -25z"/>
<path d="M2545 1017 c-4 -13 -5 -50 -3 -82 2 -45 7 -60 18 -60 8 0 16 10 18
23 5 33 58 31 74 -3 6 -14 17 -25 23 -25 17 0 19 151 2 162 -6 4 -38 8 -69 8
-52 0 -58 -2 -63 -23z m115 -42 c0 -22 -4 -25 -40 -25 -36 0 -40 3 -40 25 0
23 4 25 40 25 36 0 40 -2 40 -25z"/>
<path d="M2724 1027 c-3 -8 -4 -45 -2 -83 l3 -69 65 0 65 0 0 80 0 80 -63 3
c-46 2 -64 -1 -68 -11z m106 -77 l0 -50 -40 0 -40 0 0 50 0 50 40 0 40 0 0
-50z"/>
<path d="M2964 1027 c-3 -8 -4 -45 -2 -83 2 -53 6 -69 18 -69 8 0 16 10 18 22
3 19 10 22 55 25 l52 3 3 49 c2 32 -1 52 -10 57 -22 15 -128 11 -134 -4z m116
-53 c0 -21 -4 -24 -40 -24 -36 0 -40 3 -40 24 0 19 6 25 28 28 40 5 52 -1 52
-28z"/>
<path d="M3144 1028 c-4 -6 -9 -39 -10 -74 -4 -77 5 -86 83 -82 l58 3 3 74 c2
53 -1 77 -10 82 -20 13 -116 11 -124 -3z m106 -79 l0 -49 -40 0 -40 0 0 49 c0
44 3 50 23 53 47 8 57 -1 57 -53z"/>
<path d="M3310 956 l0 -86 65 0 c51 0 65 3 65 15 0 11 -12 15 -50 15 l-49 0
-3 67 c-2 42 -8 68 -15 71 -10 3 -13 -18 -13 -82z"/>
<path d="M3471 1026 c-7 -8 -11 -30 -9 -48 3 -33 3 -33 61 -36 49 -3 57 -6 57
-22 0 -16 -7 -20 -35 -20 -19 0 -44 5 -55 12 -24 15 -38 3 -24 -20 9 -13 26
-17 75 -17 l64 0 0 45 0 45 -54 5 c-34 3 -56 10 -59 19 -4 11 7 13 57 8 54 -4
61 -3 61 13 0 23 -19 30 -80 30 -29 0 -52 -6 -59 -14z"/>
<path d="M3640 956 c0 -70 3 -86 15 -86 10 0 15 11 15 35 0 30 3 35 23 35 27
0 57 -28 57 -53 0 -9 7 -17 15 -17 20 0 20 48 0 70 -14 15 -14 18 0 30 17 14
21 70 5 70 -6 0 -13 -8 -17 -17 -11 -31 -35 -53 -59 -53 -18 0 -23 6 -26 32
-2 17 -9 33 -15 36 -10 3 -13 -18 -13 -82z"/>
<path d="M3826 1011 c-24 -25 -27 -35 -24 -81 3 -55 28 -86 28 -36 0 24 3 26
45 26 41 0 45 -2 45 -25 0 -16 6 -25 15 -25 12 0 15 16 15 85 l0 85 -48 0
c-40 0 -53 -5 -76 -29z m94 -36 c0 -22 -4 -25 -38 -25 -21 0 -42 3 -45 7 -13
12 26 43 55 43 23 0 28 -4 28 -25z"/>
<path d="M1020 979 c0 -31 4 -48 10 -44 6 3 10 26 10 51 0 24 -4 44 -10 44 -5
0 -10 -23 -10 -51z"/>
<path d="M1330 986 c0 -25 5 -48 10 -51 6 -4 10 13 10 44 0 28 -4 51 -10 51
-5 0 -10 -20 -10 -44z"/>
<path d="M1146 1005 c-11 -8 -35 -15 -53 -15 -18 0 -33 -4 -33 -10 0 -5 15
-10 34 -10 19 0 48 -8 64 -17 28 -16 31 -16 55 0 15 9 42 17 62 17 19 0 35 5
35 10 0 6 -15 10 -33 10 -18 0 -42 7 -53 15 -10 8 -28 14 -39 14 -11 0 -29 -6
-39 -14z"/>
<path d="M2880 955 c0 -10 11 -15 35 -15 24 0 35 5 35 15 0 10 -11 15 -35 15
-24 0 -35 -5 -35 -15z"/>
</g>
</svg>
