<?xml version="1.0" standalone="no"?>
<!DOCTYPE svg PUBLIC "-//W3C//DTD SVG 20010904//EN"
 "http://www.w3.org/TR/2001/REC-SVG-20010904/DTD/svg10.dtd">
<svg version="1.0" xmlns="http://www.w3.org/2000/svg"
 width="259.000000pt" height="195.000000pt" viewBox="0 0 259.000000 195.000000"
 preserveAspectRatio="xMidYMid meet">

<g transform="translate(0.000000,195.000000) scale(0.100000,-0.100000)"
fill="#000000" stroke="none">
<path d="M850 1904 c-14 -7 -36 -27 -50 -43 -21 -25 -50 -37 -180 -76 -115
-34 -164 -45 -190 -40 -85 15 -104 12 -114 -18 -12 -34 -2 -55 42 -80 20 -12
39 -16 53 -12 12 4 18 10 13 14 -14 10 -33 48 -27 54 3 3 16 2 28 -3 16 -6 36
-4 62 5 21 8 98 33 171 56 123 39 136 41 174 30 46 -14 50 -12 52 29 1 16 6
30 13 30 17 0 29 -23 15 -28 -19 -6 -14 -29 8 -35 27 -7 44 25 35 70 -5 27
-13 38 -40 49 -19 8 -36 14 -37 13 -2 -1 -14 -7 -28 -15z m80 -26 c0 -15 -16
-16 -35 -2 -18 13 -18 14 8 12 15 -1 27 -6 27 -10z m-565 -148 c3 -5 -3 -10
-14 -10 -12 0 -21 5 -21 10 0 6 6 10 14 10 8 0 18 -4 21 -10z"/>
<path d="M1084 1853 c-9 -32 -19 -83 -22 -114 -4 -51 -7 -56 -34 -67 -18 -7
-28 -16 -26 -24 8 -19 -9 -58 -24 -58 -10 0 -10 2 1 9 9 6 -7 15 -54 30 -37
12 -69 20 -72 18 -2 -3 8 -8 23 -11 14 -4 24 -9 21 -12 -6 -6 -189 56 -202 68
-7 7 -3 8 11 4 15 -5 24 -2 28 9 3 9 2 14 -3 11 -5 -3 -14 1 -21 9 -15 19 -60
19 -84 2 -17 -12 -17 -14 -2 -20 9 -4 16 -11 16 -17 0 -6 -5 -8 -10 -5 -13 8
-9 -17 4 -26 4 -4 20 -3 35 1 19 5 63 -6 166 -43 77 -27 154 -53 172 -58 29
-9 32 -14 42 -77 7 -37 14 -75 17 -84 4 -12 0 -15 -14 -11 -11 2 -41 -7 -68
-21 -27 -14 -41 -25 -32 -26 9 0 24 -7 32 -16 18 -18 22 -79 5 -89 -14 -9 4
-21 154 -105 116 -65 123 -67 136 -49 16 23 37 25 45 3 10 -25 7 -30 -18 -42
-19 -8 -26 -8 -30 1 -3 9 -5 9 -5 0 -2 -21 -106 11 -150 46 -53 42 -71 36 -71
-23 0 -31 -5 -46 -16 -50 -28 -11 -30 -7 -31 50 -1 63 -23 96 -83 121 -19 8
-42 21 -50 28 -8 7 -32 15 -53 18 -22 3 -53 19 -73 36 -19 17 -39 31 -44 31
-6 0 -10 -22 -10 -50 0 -46 -2 -50 -34 -65 -18 -9 -44 -27 -57 -41 -12 -13
-27 -24 -32 -24 -17 0 -1 153 17 166 19 13 21 34 4 34 -7 0 -4 7 7 16 28 21 8
48 -39 52 -22 2 -36 8 -36 17 0 7 -6 15 -14 18 -7 3 -21 37 -31 75 -9 39 -24
77 -33 84 -25 21 -136 68 -160 68 -26 0 -34 -33 -36 -159 l-2 -96 -41 -15
c-54 -20 -57 -24 -40 -52 12 -19 71 -241 72 -272 0 -4 -24 -18 -54 -30 -30
-12 -56 -27 -59 -34 -2 -7 2 -10 12 -6 17 6 47 -52 45 -90 0 -20 -1 -21 -9 -1
-8 19 -9 19 -9 -2 -1 -27 54 -77 242 -218 86 -64 146 -117 147 -127 0 -9 4
-19 8 -22 5 -3 6 8 4 24 -5 35 15 48 48 30 38 -20 49 -100 13 -100 -8 0 -11
-5 -8 -10 3 -6 17 -10 31 -10 13 0 24 -5 24 -11 0 -6 8 -8 19 -4 13 4 34 -3
58 -19 33 -21 325 -186 491 -278 51 -29 54 -29 67 -11 8 10 15 25 15 34 0 39
52 48 88 16 10 -9 21 -15 24 -12 2 3 5 -1 6 -7 1 -7 5 -30 8 -51 4 -23 2 -43
-6 -52 -10 -13 -9 -15 9 -15 60 0 128 69 145 147 15 68 -84 155 -142 124 -15
-8 -36 2 -106 50 -99 69 -99 60 3 129 42 28 51 40 48 58 -2 12 1 22 7 22 6 0
4 5 -4 10 -13 8 -12 11 5 24 11 9 22 16 25 16 3 0 14 16 25 36 18 33 18 37 3
45 -10 5 -15 18 -13 29 5 25 -9 34 -25 15 -8 -10 -9 -15 -1 -15 6 0 8 -11 5
-30 -4 -20 -2 -30 5 -30 7 0 9 -5 6 -11 -4 -6 -9 -8 -12 -5 -3 3 -17 -4 -31
-15 -24 -18 -26 -19 -35 -3 -7 12 -4 26 9 48 14 24 18 53 18 138 1 106 1 108
27 118 18 8 34 8 53 0 15 -5 39 -10 52 -10 14 0 23 -4 20 -9 -3 -5 64 -37 149
-71 152 -61 155 -63 161 -96 5 -28 19 -43 76 -84 68 -47 72 -49 98 -35 15 8
41 26 57 39 17 14 32 23 35 21 2 -2 4 7 3 21 0 15 -10 31 -28 43 -33 21 -25
31 30 36 51 5 89 -17 96 -54 8 -39 0 -60 -27 -71 -18 -8 -17 -9 10 -9 55 -1
114 66 114 129 0 48 -81 101 -121 80 -10 -6 -19 -7 -19 -3 1 4 55 48 121 97
l120 89 40 -12 c47 -14 72 -2 67 33 -2 15 2 21 14 20 34 -3 32 35 -4 67 -54
48 -76 49 -114 3 -18 -21 -32 -41 -32 -44 2 -22 -16 -39 -128 -120 -69 -50
-131 -93 -139 -96 -7 -3 -49 13 -94 35 -63 32 -79 44 -74 58 6 14 7 14 14 -4
7 -20 55 -40 67 -28 3 3 0 5 -6 5 -20 0 -13 27 8 33 13 3 20 0 20 -9 0 -19 3
-18 43 8 19 13 42 28 51 33 9 6 31 59 50 125 19 63 51 169 71 234 20 65 35
129 32 142 -2 13 0 24 4 24 5 0 9 11 9 25 0 20 -5 25 -26 25 -16 0 -23 -4 -18
-12 4 -6 3 -8 -3 -5 -13 8 -104 -16 -141 -38 -33 -20 -62 -63 -55 -82 6 -16
77 -17 105 -2 11 6 21 9 23 7 3 -2 -11 -67 -30 -143 -40 -163 -39 -155 -20
-155 9 0 15 -9 15 -22 l0 -22 -16 22 c-8 12 -24 22 -35 22 -10 0 -19 2 -19 4
0 2 5 27 10 57 12 63 1 99 -36 124 -14 9 -24 25 -24 40 0 53 -18 30 -27 -35
-8 -59 -7 -70 6 -70 8 0 22 6 31 13 9 6 6 2 -6 -9 -13 -12 -28 -24 -34 -26 -7
-2 -12 -23 -13 -46 -1 -23 -6 -42 -11 -42 -5 0 -6 19 -3 43 l6 42 -60 2 c-75
3 -143 36 -147 73 l-3 25 13 -25 c17 -31 87 -59 150 -59 51 -1 49 -4 64 100
l6 46 -40 5 c-22 3 -57 17 -78 32 -43 29 -64 22 -64 -23 0 -34 -8 -44 -47 -60
-18 -8 -33 -17 -33 -22 0 -5 -4 -9 -8 -9 -4 0 -6 16 -4 35 6 53 -5 83 -37 100
-20 10 -31 24 -33 42 -3 25 -7 28 -46 31 -25 2 -58 14 -79 28 -43 29 -63 19
-63 -32 0 -28 -5 -36 -32 -49 -18 -8 -41 -20 -50 -27 -15 -10 -20 -9 -33 7
-16 21 -12 81 6 100 15 16 10 26 -19 36 -26 9 -29 16 -45 107 -11 63 -22 101
-33 109 -16 12 -143 53 -162 53 -6 0 -18 -26 -28 -57z m-139 -243 c13 -6 15
-9 5 -9 -8 0 -22 4 -30 9 -18 12 -2 12 25 0z m1290 -50 c0 -22 -29 -18 -33 3
-3 14 1 18 15 15 10 -2 18 -10 18 -18z m-1102 -64 c-10 -13 -20 -20 -21 -15
-7 17 7 39 23 39 14 0 14 -3 -2 -24z m469 -54 c54 3 73 8 84 23 8 10 14 14 14
7 0 -45 -148 -63 -222 -28 -55 26 -47 39 8 14 37 -16 62 -19 116 -16z m-292 1
c0 -14 -2 -15 -9 -4 -10 16 -31 6 -31 -15 0 -16 -16 -19 -25 -4 -13 21 4 40
35 40 22 0 30 -5 30 -17z m-166 -22 c22 -25 18 -75 -7 -79 -26 -5 -57 26 -57
58 0 15 3 30 7 33 12 13 40 7 57 -12z m319 -48 c26 -9 47 -21 47 -26 0 -4 4
-6 9 -2 5 3 12 1 16 -5 3 -5 -2 -10 -13 -10 -32 0 -110 31 -116 46 -7 18 -1
18 57 -3z m-221 -69 c19 -10 25 -19 21 -34 -4 -14 0 -20 13 -20 9 0 14 -3 11
-7 -4 -3 -2 -12 4 -19 7 -8 7 -14 -2 -19 -16 -11 -65 29 -61 50 4 21 -14 35
-46 35 -14 0 -21 4 -16 11 3 6 0 16 -7 21 -21 14 50 -1 83 -18z m573 -22 c-7
-7 -59 23 -63 36 -2 8 10 4 31 -10 20 -12 34 -24 32 -26z m-725 22 c23 -9 39
-18 37 -20 -2 -3 -24 4 -48 15 -54 24 -45 27 11 5z m374 -24 c22 -17 36 -30
32 -30 -15 0 -86 41 -86 50 0 16 13 11 54 -20z m-174 -10 c0 -5 -4 -10 -10
-10 -5 0 -10 5 -10 10 0 6 5 10 10 10 6 0 10 -4 10 -10z m-80 -10 c0 -5 -7
-10 -16 -10 -8 0 -12 5 -9 10 3 6 10 10 16 10 5 0 9 -4 9 -10z m182 -45 c61
-25 68 -31 74 -62 4 -19 4 -37 0 -40 -3 -4 -6 5 -6 19 0 20 -7 29 -31 37 -18
6 -40 11 -50 11 -11 0 -19 5 -19 11 0 6 -7 8 -16 5 -8 -3 -13 -2 -10 2 3 5 -4
16 -15 25 -21 19 -28 46 -6 30 6 -5 42 -22 79 -38z m392 18 c4 -5 11 -8 14 -8
4 -1 27 -11 52 -22 44 -21 44 -21 10 -16 -34 6 -110 39 -110 48 0 8 26 6 34
-2z m-534 -34 c0 -5 -4 -9 -10 -9 -5 0 -10 7 -10 16 0 8 5 12 10 9 6 -3 10
-10 10 -16z m-40 7 c0 -2 -7 -7 -16 -10 -8 -3 -12 -2 -9 4 6 10 25 14 25 6z
m274 -12 c9 -23 4 -24 -16 -2 -14 14 -15 18 -4 18 8 0 17 -7 20 -16z m-364
-30 c0 -2 -9 0 -20 6 -11 6 -20 13 -20 16 0 2 9 0 20 -6 11 -6 20 -13 20 -16z
m707 -58 c32 -22 49 -26 72 -21 16 3 45 7 63 7 18 0 41 9 51 19 22 23 36 24
43 4 4 -8 10 -12 15 -9 5 3 9 1 9 -4 0 -15 -47 -34 -68 -27 -12 3 -31 1 -43
-5 -42 -23 -207 26 -223 65 -12 32 -6 38 17 19 12 -11 41 -33 64 -48z m-1117
14 c0 -23 -4 -30 -20 -30 -22 0 -23 3 -14 38 9 33 34 28 34 -8z m230 -19 c-38
-71 -239 -81 -301 -15 -30 32 -18 42 14 10 30 -30 79 -40 164 -33 73 6 115 29
122 68 3 17 5 19 8 7 2 -9 -1 -26 -7 -37z m1037 17 c-3 -7 -5 -2 -5 12 0 14 2
19 5 13 2 -7 2 -19 0 -25z m-579 -7 c3 -8 -1 -12 -9 -9 -7 2 -15 10 -17 17 -3
8 1 12 9 9 7 -2 15 -10 17 -17z m-743 -65 c21 -10 24 -15 12 -16 -26 0 -73 26
-81 45 -12 33 -5 39 17 13 12 -14 36 -33 52 -42z m435 33 c0 -6 -4 -7 -10 -4
-5 3 -10 11 -10 16 0 6 5 7 10 4 6 -3 10 -11 10 -16z m381 -43 c5 -6 9 -15 9
-20 0 -6 -5 -4 -10 4 -8 12 -10 9 -10 -13 0 -16 4 -26 10 -22 6 3 10 2 10 -3
0 -6 -7 -12 -15 -16 -13 -4 -15 6 -14 67 1 40 4 59 6 42 3 -16 9 -34 14 -39z
m-1148 16 c16 -27 18 -38 9 -58 -15 -31 -35 -31 -61 2 -23 30 -28 79 -8 87 24
11 41 2 60 -31z m1112 -2 c-3 -5 -10 -10 -16 -10 -5 0 -9 5 -9 10 0 6 7 10 16
10 8 0 12 -4 9 -10z m-830 -50 c17 -27 97 -48 188 -49 44 -1 57 -5 57 -16 0
-15 -17 -19 -80 -17 -102 3 -172 30 -183 71 -5 22 7 29 18 11z m-291 -81 c47
-28 91 -58 97 -66 7 -8 -33 14 -89 47 -91 55 -112 70 -98 70 3 0 43 -23 90
-51z m102 14 c-6 -6 -56 20 -56 29 0 5 13 1 30 -8 16 -10 28 -19 26 -21z m614
-37 c36 -30 119 -49 177 -40 29 4 43 3 43 -5 0 -17 -144 -14 -187 4 -54 23
-73 44 -72 79 1 23 3 25 6 9 2 -12 17 -33 33 -47z m60 27 c0 -22 -5 -33 -14
-33 -20 0 -29 17 -22 44 9 36 36 28 36 -11z m-130 -18 c0 -7 14 -25 31 -39 17
-15 24 -26 16 -26 -22 0 -67 47 -67 70 0 12 5 18 10 15 6 -3 10 -12 10 -20z
m998 -11 c18 -12 20 -19 12 -30 -10 -11 -15 -11 -34 1 -13 8 -26 12 -29 8 -4
-3 -7 0 -7 9 0 31 24 36 58 12z m-1155 -46 c53 0 75 -3 62 -8 -32 -14 -143
-11 -178 3 -18 8 -38 21 -46 30 -11 14 -5 13 33 -4 34 -15 68 -20 129 -21z
m112 12 c-3 -5 -12 -10 -18 -10 -7 0 -6 4 3 10 19 12 23 12 15 0z m63 -69 c22
-15 82 -39 115 -47 4 -1 36 -2 72 -3 49 -1 65 -4 65 -15 0 -59 -260 -2 -282
62 -9 27 -4 28 30 3z m953 -37 c7 -8 25 -22 41 -30 27 -14 38 -34 18 -34 -19
0 -90 52 -90 66 0 19 15 18 31 -2z m-786 -142 c85 -5 99 -25 21 -30 -80 -5
-159 30 -190 85 -4 7 16 -1 43 -19 42 -25 64 -32 126 -36z m93 -171 c-4 -22
-42 -21 -46 1 -3 13 1 16 14 11 12 -4 15 -3 10 5 -5 8 -2 10 9 6 9 -4 15 -14
13 -23z"/>
<path d="M1100 1406 c0 -2 7 -7 16 -10 8 -3 12 -2 9 4 -6 10 -25 14 -25 6z"/>
<path d="M1115 1370 c3 -5 8 -10 11 -10 2 0 4 5 4 10 0 6 -5 10 -11 10 -5 0
-7 -4 -4 -10z"/>
<path d="M779 1669 c30 -10 56 -17 58 -15 5 5 -86 36 -101 35 -6 0 13 -9 43
-20z"/>
<path d="M496 1667 c3 -10 9 -15 12 -12 3 3 0 11 -7 18 -10 9 -11 8 -5 -6z"/>
<path d="M455 1640 c-3 -5 -1 -11 5 -15 5 -3 10 -3 10 1 0 3 7 1 15 -6 13 -11
14 -10 9 3 -7 19 -31 30 -39 17z"/>
<path d="M510 1624 c0 -8 5 -12 10 -9 6 3 10 10 10 16 0 5 -4 9 -10 9 -5 0
-10 -7 -10 -16z"/>
<path d="M1860 1621 c0 -11 4 -22 8 -25 14 -9 35 12 29 28 -9 23 -37 20 -37
-3z"/>
<path d="M2013 1475 c0 -8 4 -15 9 -15 4 0 8 7 8 15 0 8 -4 15 -8 15 -5 0 -9
-7 -9 -15z"/>
<path d="M946 1268 c-21 -30 -20 -37 4 -31 22 6 27 23 8 23 -9 0 -8 3 2 10 8
5 12 12 8 15 -3 4 -13 -4 -22 -17z"/>
<path d="M981 1264 c0 -11 3 -14 6 -6 3 7 2 16 -1 19 -3 4 -6 -2 -5 -13z"/>
<path d="M570 564 c0 -19 34 -74 46 -74 19 0 18 30 -2 58 -14 20 -44 31 -44
16z"/>
<path d="M1417 123 c-4 -3 -7 -16 -6 -27 0 -19 1 -19 10 3 10 24 8 36 -4 24z"/>
</g>
</svg>
